# AST/ASF file generated using VICON BodyLanguage
# -----------------------------------------------
:version 1.10
:name VICON
:units
  mass 1.0
  length 0.45
  angle deg
:documentation
   .ast/.asf automatically generated from VICON data using
   VICON BodyBuilder and BodyLanguage model FoxedUp or BRILLIANT.MOD
:root
   order TX TY TZ RX RY RZ
   axis XYZ
   position 0 0 0  
   orientation 0 0 0 
:bonedata
  begin
     id 1 
     name lhipjoint
     direction 0.646821 -0.743844 0.168282 
     length 2.62284 
     axis 0 0 0  XYZ
  end
  begin
     id 2 
     name lfemur
     direction 0.34202 -0.939693 0  
     length 7.79098  
     axis 0 0 20  XYZ
    dof rx ry rz
    limits (-160.0 20.0)
           (-70.0 70.0)
           (-60.0 70.0)
  end
  begin
     id 3 
     name ltibia
     direction 0.34202 -0.939693 0   
     length 8.1986   
     axis 0 0 20   XYZ
    dof rx
    limits (-10.0 170.0)
  end
  begin
     id 4 
     name lfoot
     direction 0.0766762 -0.210666 0.974546   
     length 1.95107   
     axis -90 7.62852e-016 20   XYZ
    dof rx rz
    limits (-45.0 90.0)
           (-70.0 20.0)
  end
  begin
     id 5 
     name ltoes
     direction 1.53582e-011 -4.21539e-011 1   
     length 0.983514   
     axis -90 7.62852e-016 20   XYZ
    dof rx
    limits (-90.0 20.0)
  end
  begin
     id 6 
     name rhipjoint
     direction -0.658967 -0.733632 0.165972   
     length 2.65935  
     axis 0 0 0  XYZ 
  end
  begin
     id 7 
     name rfemur
     direction -0.34202 -0.939693 0   
     length 7.69405   
     axis 0 0 -20   XYZ
    dof rx ry rz
    limits (-160.0 20.0)
           (-70.0 70.0)
           (-70.0 60.0)
  end
  begin
     id 8 
     name rtibia
     direction -0.34202 -0.939693 0   
     length 8.15138   
     axis 0 0 -20   XYZ
    dof rx
    limits (-10.0 170.0)
 end
 begin
     id 9 
     name rfoot
     direction -0.0806473 -0.221577 0.971802   
     length 2.09362  
     axis -90 -7.62852e-016 -20   XYZ
    dof rx rz
    limits (-45.0 90.0)
           (-20.0 70.0)
  end
  begin
     id 10 
     name rtoes
     direction -1.53524e-011 -4.2203e-011 1   
     length 1.05224   
     axis -90 -7.62852e-016 -20   XYZ
    dof rx
    limits (-90.0 20.0)
  end
  begin
     id 11 
     name lowerback
     direction -0.0484271 0.997202 0.0569433   
     length 1.86801   
     axis 0 0 0   XYZ
    dof rx ry rz
    limits (-20.0 45.0)
           (-30.0 30.0)
           (-30.0 30.0)
  end
  begin
     id 12 
     name upperback
     direction 0.0148864 0.998882 0.0448682   
     length 1.86634   
     axis 0 0 0   XYZ
    dof rx ry rz
    limits (-20.0 45.0)
           (-30.0 30.0)
           (-30.0 30.0)
  end
  begin
     id 13 
     name thorax
     direction 0.0368776 0.99918 0.0167067   
     length 1.87554   
     axis 0 0 0   XYZ
    dof rx ry rz
    limits (-20.0 45.0)
           (-30.0 30.0)
           (-30.0 30.0)
  end
  begin
     id 14 
     name lowerneck
     direction -0.0200531 0.999751 0.00976032   
     length 1.82429   
     axis 0 0 0   XYZ
    dof rx ry rz
    limits (-20.0 45.0)
           (-30.0 30.0)
           (-30.0 30.0)
  end
  begin
     id 15 
     name upperneck
     direction 0.0113135 0.99728 -0.0728357   
     length 1.79098   
     axis 0 0 0   XYZ
    dof rx ry rz
    limits (-20.0 45.0)
           (-30.0 30.0)
           (-30.0 30.0)
  end
  begin
     id 16
     name head
     direction 0.00559662 0.999607 -0.0274604  
     length 1.88003  
     axis 0 0 0   XYZ
    dof rx ry rz
    limits (-20.0 45.0)
           (-30.0 30.0)
           (-30.0 30.0)
  end
  begin
     id 17 
     name lclavicle
     direction 0.931914 0.362632 -0.00585704  
     length 3.94155  
     axis 0 0 0   XYZ
    dof ry rz
    limits (-20.0 10.0)
           (0.0 20.0)
  end
  begin
     id 18 
     name lhumerus
     direction 1 -4.48969e-011 2.13403e-027   
     length 5.77473   
     axis 180 -30 -90   XYZ
    dof rx ry rz
    limits (-60.0 90.0)
           (-90.0 90.0)
           (-90.0 90.0)
  end
  begin
     id 19
     name lradius
     direction 1 -4.48969e-011 5.41017e-027   
     length 3.53732   
     axis 180 -30 -90   XYZ
    dof rx
    limits (-10.0 170.0)
  end
  begin
     id 20
     name lwrist
     direction 1 -4.48986e-011 1.36145e-026   
     length 1.76866   
     axis -8.75986e-015 90 90   XYZ
    dof ry
    limits (-180.0 0.0)
 end
  begin
     id 21 
     name lhand
     direction 1 -4.48703e-011 2.72291e-026   
     length 0.556229   
     axis -1.73745e-014 90 90   XYZ
    dof rx rz
    limits (-90.0 90.0)
           (-45.0 45.0)
  end
  begin
     id 22 
     name lfingers
     direction 1 -4.49204e-011 5.44582e-026   
     length 0.448446   
     axis -3.4749e-014 90 90   XYZ
    dof rx
    limits (0.0 90.0)
  end
  begin
     id 23
     name lthumb
     direction 0.707107 -6.34773e-011 0.707107   
     length 0.643881   
     axis -90 45 2.85299e-015   XYZ
    dof rx rz
    limits (-45.0 45.0)
           (-45.0 45.0)
  end
  begin
     id 24 
     name rclavicle
     direction -0.951782 0.300043 0.0639076   
     length 3.96398  
     axis 0 0 0   XYZ 
    dof ry rz
    limits (-10.0 20.0)
           (-20.0 0.0)
  end
  begin
     id 25 
     name rhumerus
     direction -1 -4.48967e-011 6.14867e-028  
     length 5.79581   
     axis 180 30 90   XYZ
    dof rx ry rz
    limits (-90.0 60.0)
           (-90.0 90.0)
           (-90.0 90.0)
  end
  begin
     id 26 
     name rradius
     direction -1 -4.48966e-011 9.26908e-027   
     length 3.37412   
     axis 180 30 90   XYZ
    dof rx
    limits (-10.0 170.0)
  end
  begin
     id 27 
     name rwrist
     direction -1 -4.48999e-011 1.36145e-026   
     length 1.68706   
     axis -8.75986e-015 -90 -90   XYZ
    dof ry
    limits (-180.0 0.0)
  end
  begin
     id 28
     name rhand
     direction -1 -4.49032e-011 2.72291e-026   
     length 0.680496   
     axis -1.73745e-014 -90 -90   XYZ
    dof rx rz
    limits (-90.0 90.0)
           (-45.0 45.0)
  end
  begin
     id 29
     name rfingers
     direction -1 -4.48876e-011 5.44582e-026   
     length 0.548633   
     axis -3.4749e-014 -90 -90   XYZ
    dof rx
    limits (0.0 90.0)
  end
  begin
     id 30
     name rthumb
     direction -0.707107 -6.34964e-011 0.707107   
     length 0.787731   
     axis -90 -45 -2.85299e-015   XYZ
    dof rx rz
    limits (-45.0 45.0)
           (-45.0 45.0)
  end
:hierarchy
  begin
    root lhipjoint rhipjoint lowerback
    lhipjoint lfemur
    lfemur ltibia
    ltibia lfoot
    lfoot ltoes
    rhipjoint rfemur
    rfemur rtibia
    rtibia rfoot
    rfoot rtoes
    lowerback upperback
    upperback thorax
    thorax lowerneck lclavicle rclavicle
    lowerneck upperneck
    upperneck head
    lclavicle lhumerus
    lhumerus lradius
    lradius lwrist
    lwrist lhand lthumb
    lhand lfingers
    rclavicle rhumerus
    rhumerus rradius
    rradius rwrist
    rwrist rhand rthumb
    rhand rfingers
  end

#!OML:ASF H:\Terrain\Patient Classification 1\PaulMetrics\March1\PaulMetrics.ASF
:FULLY-SPECIFIED
:DEGREES
48
root 25.2169 17.8414 -16.7198 12.8367 -10.1566 2.43031
lowerback -2.56134 -1.16193 -4.18087
upperback -4.74591 -1.49349 2.38276
thorax -3.30026 -0.565919 4.82073
lowerneck -4.79811 2.26681 -0.149725
upperneck 6.15049 3.3452 -4.36049
head 2.88468 1.50781 -1.25014
rclavicle 1.86361e-014 -2.62396e-014
rhumerus -53.4941 20.464 -96.2055
rradius 44.2121
rwrist -10.7207
rhand -11.0799 -33.6415
rfingers 7.12502
rthumb 14.9435 -63.0824
lclavicle 1.86361e-014 -2.62396e-014
lhumerus -45.8095 -26.3394 95.3078
lradius 70.4934
lwrist 11.3226
lhand -24.2229 -10.9729
lfingers 7.12502
lthumb 2.26204 18.9949
rfemur -41.7152 3.71165 20.0497
rtibia 29.4669
rfoot -3.02389 -16.8709
rtoes -18.7892
lfemur -1.92772 -0.669303 -21.3738
ltibia 30.6858
lfoot -3.08134 -5.58734
ltoes -14.8543
49
root 25.1383 17.836 -16.5438 12.7365 -10.009 2.23008
lowerback -2.55333 -1.1386 -4.01925
upperback -4.77329 -1.461 2.46539
thorax -3.33799 -0.551972 4.81632
lowerneck -4.65935 2.30289 -0.227125
upperneck 6.34032 3.38931 -4.14076
head 2.91641 1.53389 -1.16445
rclavicle 2.67614e-014 3.26007e-014
rhumerus -53.4165 20.4545 -96.093
rradius 44.134
rwrist -10.6527
rhand -11.2038 -33.4712
rfingers 7.12502
rthumb 14.8242 -62.921
lclavicle 2.67614e-014 3.26007e-014
lhumerus -46.2942 -25.7309 95.6153
lradius 69.1778
lwrist 11.0482
lhand -22.8926 -11.0483
lfingers 7.12502
lthumb 3.54684 18.9019
rfemur -41.5193 3.49052 20.6216
rtibia 30.7005
rfoot -3.85723 -16.5007
rtoes -20.0032
lfemur -2.70963 -0.120318 -20.843
ltibia 33.0589
lfoot -0.569435 -4.81174
ltoes -12.9914
50
root 25.06 17.8351 -16.3598 12.5797 -9.8657 2.13235
lowerback -2.71062 -1.12963 -3.91781
upperback -4.67809 -1.4422 2.51659
thorax -3.15262 -0.551757 4.80681
lowerneck -4.694 2.34925 -0.351081
upperneck 6.51783 3.44819 -3.86222
head 2.97441 1.56647 -1.04937
rclavicle -4.57453e-014 5.56597e-015
rhumerus -53.2879 20.6675 -95.9641
rradius 44.1166
rwrist -11.0125
rhand -11.4906 -33.3294
rfingers 7.12502
rthumb 14.5478 -62.7993
lclavicle -4.57453e-014 5.56597e-015
lhumerus -46.6615 -24.9448 95.8193
lradius 67.9185
lwrist 10.6002
lhand -22.6004 -10.8244
lfingers 7.12502
lthumb 3.82896 19.121
rfemur -41.1986 3.24312 21.0661
rtibia 31.8551
rfoot -5.10821 -16.066
rtoes -18.8793
lfemur -3.47625 0.356866 -20.4251
ltibia 35.4715
lfoot 1.87757 -3.95307
ltoes -11.4912
51
root 24.9852 17.8389 -16.1782 12.4905 -9.80085 2.31619
lowerback -3.04086 -1.14145 -4.03216
upperback -4.56197 -1.44679 2.45719
thorax -2.84456 -0.561907 4.79967
lowerneck -4.96731 2.3918 -0.675732
upperneck 6.85303 3.50618 -3.31081
head 3.12022 1.5985 -0.807844
rclavicle -4.09993e-015 -3.18055e-015
rhumerus -52.8621 20.7802 -95.7646
rradius 43.8902
rwrist -11.0137
rhand -11.8559 -32.7088
rfingers 7.12502
rthumb 14.1958 -62.2038
lclavicle -4.09993e-015 -3.18055e-015
lhumerus -46.9108 -24.4045 95.9951
lradius 66.6865
lwrist 10.3328
lhand -22.4999 -10.4951
lfingers 7.12502
lthumb 3.92607 19.4485
rfemur -40.9676 3.00493 21.1621
rtibia 32.8879
rfoot -6.28903 -15.6602
rtoes -16.6328
lfemur -4.51445 0.678951 -20.3645
ltibia 37.9991
lfoot 4.18212 -3.38701
ltoes -7.51077
52
root 24.9136 17.8486 -16.007 12.3934 -9.62836 2.54553
lowerback -3.15434 -1.18191 -4.16774
upperback -4.57555 -1.49705 2.38165
thorax -2.78859 -0.585432 4.79464
lowerneck -4.97795 2.40867 -0.760307
upperneck 7.21897 3.53096 -3.09154
head 3.24096 1.61077 -0.719856
rclavicle -3.24267e-014 -2.46493e-014
rhumerus -52.4841 20.7305 -95.5269
rradius 43.6399
rwrist -10.646
rhand -12.1179 -32.0733
rfingers 7.12502
rthumb 13.9434 -61.5858
lclavicle -3.24267e-014 -2.46493e-014
lhumerus -47.2643 -24.1687 96.2448
lradius 65.4056
lwrist 10.2965
lhand -22.3958 -10.4983
lfingers 7.12502
lthumb 4.02653 19.4434
rfemur -40.65 2.63321 21.239
rtibia 33.7236
rfoot -7.17099 -15.4347
rtoes -16.6828
lfemur -5.74171 0.707487 -20.3704
ltibia 40.6266
lfoot 6.34635 -2.62847
ltoes -3.6454
53
root 24.8441 17.8552 -15.8397 12.2729 -9.37618 2.41978
lowerback -2.98472 -1.21391 -4.01854
upperback -4.71138 -1.54609 2.4718
thorax -3.02068 -0.604212 4.81038
lowerneck -4.7222 2.44321 -0.556495
upperneck 7.4855 3.58425 -3.32676
head 3.29542 1.63208 -0.832331
rclavicle 4.78077e-014 -1.66979e-014
rhumerus -52.329 20.7786 -95.2938
rradius 43.4976
rwrist -10.322
rhand -11.8276 -32.3354
rfingers 7.12502
rthumb 14.2231 -61.8285
lclavicle 4.78077e-014 -1.66979e-014
lhumerus -47.8006 -23.8458 96.6932
lradius 63.991
lwrist 10.0886
lhand -22.4693 -10.5285
lfingers 7.12502
lthumb 3.95562 19.4145
rfemur -40.1265 2.17365 21.7558
rtibia 34.3315
rfoot -7.92863 -15.2744
rtoes -17.8752
lfemur -6.97905 0.723173 -20.0167
ltibia 43.4181
lfoot 8.18264 -1.92215
ltoes -3.22138
